<svg width="24" height="24" viewBox="0 0 24 24" fill="none" xmlns="http://www.w3.org/2000/svg">
<path d="M11.3814 3.26351C11.5455 3.09478 11.768 3 12 3C12.232 3 12.4545 3.09478 12.6186 3.26351L15.2436 5.96354C15.403 6.13328 15.4912 6.36063 15.4892 6.59661C15.4872 6.83259 15.3952 7.05832 15.233 7.22519C15.0707 7.39206 14.8513 7.48671 14.6219 7.48876C14.3924 7.49081 14.1714 7.4001 14.0064 7.23615L12.875 6.07244V14.6999C12.875 14.9386 12.7828 15.1676 12.6187 15.3363C12.4546 15.5051 12.2321 15.5999 12 15.5999C11.7679 15.5999 11.5454 15.5051 11.3813 15.3363C11.2172 15.1676 11.125 14.9386 11.125 14.6999V6.07244L9.99362 7.23615C9.8286 7.4001 9.60757 7.49081 9.37815 7.48876C9.14873 7.48671 8.92927 7.39206 8.76703 7.22519C8.6048 7.05832 8.51278 6.83259 8.51079 6.59661C8.50879 6.36063 8.59699 6.13328 8.75638 5.96354L11.3814 3.26351ZM5 11.0999C5 10.6225 5.18437 10.1647 5.51256 9.82709C5.84075 9.48952 6.28587 9.29988 6.75 9.29988H8.5C8.73206 9.29988 8.95462 9.3947 9.11872 9.56348C9.28281 9.73227 9.375 9.96119 9.375 10.1999C9.375 10.4386 9.28281 10.6675 9.11872 10.8363C8.95462 11.0051 8.73206 11.0999 8.5 11.0999H6.75V19.2H17.25V11.0999H15.5C15.2679 11.0999 15.0454 11.0051 14.8813 10.8363C14.7172 10.6675 14.625 10.4386 14.625 10.1999C14.625 9.96119 14.7172 9.73227 14.8813 9.56348C15.0454 9.3947 15.2679 9.29988 15.5 9.29988H17.25C17.7141 9.29988 18.1592 9.48952 18.4874 9.82709C18.8156 10.1647 19 10.6225 19 11.0999V19.2C19 19.6774 18.8156 20.1352 18.4874 20.4728C18.1592 20.8104 17.7141 21 17.25 21H6.75C6.28587 21 5.84075 20.8104 5.51256 20.4728C5.18437 20.1352 5 19.6774 5 19.2V11.0999Z" fill="#262626"/>
</svg>
