<svg width="48" height="48" viewBox="0 0 48 48" fill="none" xmlns="http://www.w3.org/2000/svg">
<g clip-path="url(#clip0_286_2700)">
<path d="M36 26H26V36C26 36.5304 25.7893 37.0391 25.4142 37.4142C25.0391 37.7893 24.5304 38 24 38C23.4696 38 22.9609 37.7893 22.5858 37.4142C22.2107 37.0391 22 36.5304 22 36V26H12C11.4696 26 10.9609 25.7893 10.5858 25.4142C10.2107 25.0391 10 24.5304 10 24C10 23.4696 10.2107 22.9609 10.5858 22.5858C10.9609 22.2107 11.4696 22 12 22H22V12C22 11.4696 22.2107 10.9609 22.5858 10.5858C22.9609 10.2107 23.4696 10 24 10C24.5304 10 25.0391 10.2107 25.4142 10.5858C25.7893 10.9609 26 11.4696 26 12V22H36C36.5304 22 37.0391 22.2107 37.4142 22.5858C37.7893 22.9609 38 23.4696 38 24C38 24.5304 37.7893 25.0391 37.4142 25.4142C37.0391 25.7893 36.5304 26 36 26Z" fill="#1D8163"/>
<circle cx="24" cy="24" r="22" stroke="#1D8163" stroke-width="4"/>
</g>
<defs>
<clipPath id="clip0_286_2700">
<rect width="48" height="48" fill="white"/>
</clipPath>
</defs>
</svg>
