<svg width="20" height="20" viewBox="0 0 20 20" fill="none" xmlns="http://www.w3.org/2000/svg">
<path d="M5.83338 17.5C5.37504 17.5 4.98282 17.3369 4.65671 17.0108C4.3306 16.6847 4.16727 16.2922 4.16671 15.8333V5C3.9306 5 3.73282 4.92 3.57338 4.76C3.41393 4.6 3.33393 4.40222 3.33338 4.16667C3.33282 3.93111 3.41282 3.73333 3.57338 3.57333C3.73393 3.41333 3.93171 3.33333 4.16671 3.33333H7.50004C7.50004 3.09722 7.58004 2.89944 7.74004 2.74C7.90004 2.58056 8.09782 2.50056 8.33338 2.5H11.6667C11.9028 2.5 12.1009 2.58 12.2609 2.74C12.4209 2.9 12.5006 3.09778 12.5 3.33333H15.8334C16.0695 3.33333 16.2675 3.41333 16.4275 3.57333C16.5875 3.73333 16.6673 3.93111 16.6667 4.16667C16.6662 4.40222 16.5862 4.60028 16.4267 4.76083C16.2673 4.92139 16.0695 5.00111 15.8334 5V15.8333C15.8334 16.2917 15.6703 16.6842 15.3442 17.0108C15.0181 17.3375 14.6256 17.5006 14.1667 17.5H5.83338ZM14.1667 5H5.83338V15.8333H14.1667V5ZM8.33338 14.1667C8.56949 14.1667 8.76754 14.0867 8.92754 13.9267C9.08754 13.7667 9.16727 13.5689 9.16671 13.3333V7.5C9.16671 7.26389 9.08671 7.06611 8.92671 6.90667C8.76671 6.74722 8.56893 6.66722 8.33338 6.66667C8.09782 6.66611 7.90004 6.74611 7.74004 6.90667C7.58004 7.06722 7.50004 7.265 7.50004 7.5V13.3333C7.50004 13.5694 7.58004 13.7675 7.74004 13.9275C7.90004 14.0875 8.09782 14.1672 8.33338 14.1667ZM11.6667 14.1667C11.9028 14.1667 12.1009 14.0867 12.2609 13.9267C12.4209 13.7667 12.5006 13.5689 12.5 13.3333V7.5C12.5 7.26389 12.42 7.06611 12.26 6.90667C12.1 6.74722 11.9023 6.66722 11.6667 6.66667C11.4312 6.66611 11.2334 6.74611 11.0734 6.90667C10.9134 7.06722 10.8334 7.265 10.8334 7.5V13.3333C10.8334 13.5694 10.9134 13.7675 11.0734 13.9275C11.2334 14.0875 11.4312 14.1672 11.6667 14.1667Z" fill="#FF3B30"/>
</svg>
