<svg width="48" height="48" viewBox="0 0 48 48" fill="none" xmlns="http://www.w3.org/2000/svg">
<path d="M16.956 16.956C17.3311 16.5811 17.8397 16.3704 18.37 16.3704C18.9003 16.3704 19.4089 16.5811 19.784 16.956L24.092 21.262L28.398 16.956C28.5825 16.765 28.8032 16.6126 29.0472 16.5078C29.2912 16.403 29.5536 16.3478 29.8192 16.3455C30.0848 16.3432 30.3481 16.3938 30.5939 16.4944C30.8397 16.5949 31.063 16.7434 31.2508 16.9312C31.4386 17.119 31.5871 17.3423 31.6876 17.5881C31.7882 17.8339 31.8388 18.0972 31.8365 18.3628C31.8342 18.6284 31.779 18.8908 31.6742 19.1348C31.5694 19.3788 31.417 19.5995 31.226 19.784L26.92 24.092L31.226 28.398C31.5903 28.7752 31.7919 29.2804 31.7873 29.8048C31.7828 30.3292 31.5724 30.8308 31.2016 31.2016C30.8308 31.5725 30.3292 31.7828 29.8048 31.7874C29.2804 31.7919 28.7752 31.5903 28.398 31.226L24.092 26.92L19.784 31.226C19.4053 31.5816 18.9032 31.7759 18.3838 31.7678C17.8645 31.7598 17.3686 31.55 17.0012 31.1828C16.6338 30.8156 16.4236 30.3199 16.4152 29.8005C16.4067 29.2812 16.6007 28.7789 16.956 28.4L21.262 24.094L16.956 19.786C16.5811 19.4109 16.3704 18.9023 16.3704 18.372C16.3704 17.8417 16.5811 17.3331 16.956 16.958" fill="#7B7B7B"/>
<path fill-rule="evenodd" clip-rule="evenodd" d="M24 4C12.954 4 4 12.954 4 24C4 35.046 12.954 44 24 44C35.046 44 44 35.046 44 24C44 12.954 35.046 4 24 4ZM8 24C8 19.7565 9.68571 15.6869 12.6863 12.6863C15.6869 9.68571 19.7565 8 24 8C28.2435 8 32.3131 9.68571 35.3137 12.6863C38.3143 15.6869 40 19.7565 40 24C40 28.2435 38.3143 32.3131 35.3137 35.3137C32.3131 38.3143 28.2435 40 24 40C19.7565 40 15.6869 38.3143 12.6863 35.3137C9.68571 32.3131 8 28.2435 8 24Z" fill="#7B7B7B"/>
</svg>
