<svg width="20" height="20" viewBox="0 0 20 20" fill="none" xmlns="http://www.w3.org/2000/svg">
<path d="M9.46975 2.21959C9.6104 2.07899 9.80113 2 10 2C10.1989 2 10.3896 2.07899 10.5303 2.21959L12.7802 4.46962C12.9169 4.61107 12.9925 4.80052 12.9908 4.99717C12.989 5.19382 12.9102 5.38193 12.7711 5.52099C12.6321 5.66005 12.4439 5.73893 12.2473 5.74064C12.0507 5.74234 11.8612 5.66675 11.7198 5.53013L10.75 4.56037V11.7499C10.75 11.9489 10.671 12.1396 10.5303 12.2803C10.3897 12.4209 10.1989 12.5 10 12.5C9.80109 12.5 9.61032 12.4209 9.46967 12.2803C9.32902 12.1396 9.25 11.9489 9.25 11.7499V4.56037L8.28025 5.53013C8.1388 5.66675 7.94935 5.74234 7.7527 5.74064C7.55605 5.73893 7.36794 5.66005 7.22889 5.52099C7.08983 5.38193 7.01095 5.19382 7.00924 4.99717C7.00754 4.80052 7.08313 4.61107 7.21975 4.46962L9.46975 2.21959ZM4 8.74991C4 8.35208 4.15804 7.97055 4.43934 7.68924C4.72064 7.40793 5.10218 7.2499 5.5 7.2499H7C7.19891 7.2499 7.38968 7.32891 7.53033 7.46957C7.67098 7.61022 7.75 7.80099 7.75 7.9999C7.75 8.19882 7.67098 8.38959 7.53033 8.53024C7.38968 8.67089 7.19891 8.74991 7 8.74991H5.5V15.5H14.5V8.74991H13C12.8011 8.74991 12.6103 8.67089 12.4697 8.53024C12.329 8.38959 12.25 8.19882 12.25 7.9999C12.25 7.80099 12.329 7.61022 12.4697 7.46957C12.6103 7.32891 12.8011 7.2499 13 7.2499H14.5C14.8978 7.2499 15.2794 7.40793 15.5607 7.68924C15.842 7.97055 16 8.35208 16 8.74991V15.5C16 15.8978 15.842 16.2793 15.5607 16.5607C15.2794 16.842 14.8978 17 14.5 17H5.5C5.10218 17 4.72064 16.842 4.43934 16.5607C4.15804 16.2793 4 15.8978 4 15.5V8.74991Z" fill="#262626"/>
</svg>
