<svg width="24" height="24" viewBox="0 0 24 24" fill="none" xmlns="http://www.w3.org/2000/svg">
<path d="M20.4361 8.42647C18.9614 9.35294 18.0506 10.9412 18.0506 12.7059C18.0506 14.6912 19.2217 16.5 21 17.25C20.653 18.3971 20.1325 19.4559 19.4819 20.4265C18.5277 21.7941 17.5301 23.2059 16.0554 23.2059C14.5807 23.2059 14.147 22.3235 12.412 22.3235C10.7205 22.3235 10.1133 23.25 8.7253 23.25C7.33735 23.25 6.38313 21.9706 5.2988 20.3824C3.86747 18.1765 3.04337 15.6176 3 12.9265C3 8.55882 5.7759 6.22059 8.55181 6.22059C10.0265 6.22059 11.241 7.19118 12.1518 7.19118C13.0193 7.19118 14.4072 6.17647 16.0554 6.17647C17.7904 6.13235 19.4386 6.97059 20.4361 8.42647ZM15.2747 4.32353C16.012 3.44118 16.4024 2.33824 16.4458 1.19118C16.4458 1.05882 16.4458 0.882353 16.4024 0.75C15.1446 0.882353 13.9735 1.5 13.1494 2.47059C12.412 3.30882 11.9783 4.36765 11.9349 5.51471C11.9349 5.64706 11.9349 5.77941 11.9783 5.91176C12.0651 5.91176 12.1952 5.95588 12.2819 5.95588C13.453 5.86765 14.5373 5.25 15.2747 4.32353Z" fill="white"/>
</svg>
