<svg width="24" height="24" viewBox="0 0 24 24" fill="none" xmlns="http://www.w3.org/2000/svg">
<path d="M16.293 3.29279C16.4805 3.10532 16.7348 3 17 3C17.2652 3 17.5195 3.10532 17.707 3.29279L21.707 7.29279C21.8945 7.48031 21.9998 7.73462 21.9998 7.99979C21.9998 8.26495 21.8945 8.51926 21.707 8.70679L8.707 21.7068C8.51951 21.8943 8.26519 21.9997 8 21.9998H4C3.73478 21.9998 3.48043 21.8944 3.29289 21.7069C3.10536 21.5194 3 21.265 3 20.9998V16.9998C3.00006 16.7346 3.10545 16.4803 3.293 16.2928L13.293 6.29279L16.293 3.29279ZM14 8.41379L5 17.4138V19.9998H7.586L16.586 10.9998L14 8.41379ZM18 9.58579L19.586 7.99979L17 5.41379L15.414 6.99979L18 9.58579Z" fill="#262626"/>
</svg>
