<svg width="32" height="32" viewBox="0 0 32 32" fill="none" xmlns="http://www.w3.org/2000/svg">
<g clip-path="url(#clip0_314_1030)">
<path d="M22.8571 17.1429H17.1429V22.8571C17.1429 23.1602 17.0225 23.4509 16.8081 23.6653C16.5938 23.8796 16.3031 24 16 24C15.6969 24 15.4062 23.8796 15.1919 23.6653C14.9776 23.4509 14.8571 23.1602 14.8571 22.8571V17.1429H9.14286C8.83975 17.1429 8.54906 17.0225 8.33474 16.8081C8.12041 16.5938 8 16.3031 8 16C8 15.6969 8.12041 15.4062 8.33474 15.1919C8.54906 14.9776 8.83975 14.8571 9.14286 14.8571H14.8571V9.14286C14.8571 8.83975 14.9776 8.54906 15.1919 8.33473C15.4062 8.12041 15.6969 8 16 8C16.3031 8 16.5938 8.12041 16.8081 8.33473C17.0225 8.54906 17.1429 8.83975 17.1429 9.14286V14.8571H22.8571C23.1602 14.8571 23.4509 14.9776 23.6653 15.1919C23.8796 15.4062 24 15.6969 24 16C24 16.3031 23.8796 16.5938 23.6653 16.8081C23.4509 17.0225 23.1602 17.1429 22.8571 17.1429Z" fill="#1D8163"/>
<circle cx="16" cy="16" r="14.5" stroke="#1D8163" stroke-width="3"/>
</g>
<defs>
<clipPath id="clip0_314_1030">
<rect width="32" height="32" fill="white"/>
</clipPath>
</defs>
</svg>
