<svg width="20" height="20" viewBox="0 0 20 20" fill="none" xmlns="http://www.w3.org/2000/svg">
<path d="M10 17C11.8565 17 13.637 16.2625 14.9497 14.9497C16.2625 13.637 17 11.8565 17 10C17 8.14348 16.2625 6.36301 14.9497 5.05025C13.637 3.7375 11.8565 3 10 3C8.14348 3 6.36301 3.7375 5.05025 5.05025C3.7375 6.36301 3 8.14348 3 10C3 11.8565 3.7375 13.637 5.05025 14.9497C6.36301 16.2625 8.14348 17 10 17Z" stroke="#262626" stroke-width="1.6" stroke-linecap="round" stroke-linejoin="round"/>
<path d="M5 5.59526C8.18997 6.29494 6.69279 8.89774 6.64765 11.5425C6.64765 14.4112 9.17555 12.676 9.0627 14.0334C9.09146 15.0477 9.30252 16.0504 9.68715 17M12.0495 4C12.0495 4.96555 12.0495 5.79817 11.4928 5.9451C10.6577 6.162 11.2821 8.90474 10.7404 10.2061C10.1987 11.5075 12.6439 11.9553 13.7498 10.9058C14.8558 9.8563 14.0433 8.96071 15.2545 8.96071C15.6834 8.96071 16.3379 9.03068 17 9.05167" stroke="#262626" stroke-width="1.5" stroke-linecap="round" stroke-linejoin="round"/>
</svg>
