<svg width="24" height="24" viewBox="0 0 24 24" fill="none" xmlns="http://www.w3.org/2000/svg">
<path d="M11.9999 17.8721L7.21286 20.908C7.0722 20.981 6.94164 21.0105 6.8212 20.9967C6.70163 20.9819 6.58514 20.9385 6.47173 20.8665C6.35744 20.7926 6.27128 20.6883 6.21326 20.5535C6.15523 20.4187 6.14996 20.2714 6.19743 20.1117L7.47133 14.4193L3.25796 10.5829C3.13927 10.4813 3.06103 10.3599 3.02322 10.2186C2.98542 10.0773 2.99377 9.94208 3.04828 9.81281C3.10279 9.68355 3.17532 9.57736 3.26587 9.49426C3.3573 9.41393 3.48039 9.35946 3.63512 9.33083L9.19493 8.82115L11.3629 3.43074C11.4227 3.27839 11.5089 3.16851 11.6214 3.1011C11.7339 3.0337 11.8601 3 11.9999 3C12.1397 3 12.2663 3.0337 12.3797 3.1011C12.4931 3.16851 12.5788 3.27839 12.6368 3.43074L14.8048 8.82115L20.3633 9.33083C20.519 9.35853 20.6425 9.41347 20.7339 9.49565C20.8253 9.5769 20.8983 9.68262 20.9528 9.81281C21.0064 9.94208 21.0144 10.0773 20.9766 10.2186C20.9387 10.3599 20.8605 10.4813 20.7418 10.5829L16.5284 14.4193L17.8023 20.1117C17.8516 20.2696 17.8467 20.4164 17.7878 20.5521C17.7289 20.6878 17.6423 20.7922 17.528 20.8651C17.4155 20.939 17.299 20.9828 17.1786 20.9967C17.059 21.0105 16.9289 20.981 16.7882 20.908L11.9999 17.8721Z" fill="#F08D13"/>
</svg>
