<svg width="24" height="24" viewBox="0 0 24 24" fill="none" xmlns="http://www.w3.org/2000/svg">
<path d="M12 3C14.3869 3 16.6764 3.94791 18.3643 5.63574C20.0521 7.32357 21 9.61305 21 12C21 14.3869 20.0521 16.6764 18.3643 18.3643C16.6764 20.0521 14.3869 21 12 21C9.61305 21 7.32357 20.0521 5.63574 18.3643C3.94791 16.6764 3 14.3869 3 12C3 9.61305 3.94791 7.32357 5.63574 5.63574C7.32357 3.94791 9.61305 3 12 3ZM12 5C10.6078 5 9.25782 5.41392 8.11621 6.1748C8.39248 6.36446 8.62812 6.58588 8.82031 6.84375C9.29543 7.48162 9.43539 8.23089 9.44727 8.9541C9.4589 9.66864 9.34541 10.4488 9.23926 11.1875C9.12973 11.9497 9.02249 12.6955 9.01074 13.4355C9.01246 14.2029 9.17355 14.5134 9.27734 14.6377C9.37159 14.7504 9.50896 14.8193 9.78223 14.8643C9.93033 14.8886 10.0596 14.8985 10.249 14.9199C10.4106 14.9382 10.6344 14.9676 10.8467 15.043C11.0739 15.1238 11.3412 15.2763 11.5234 15.5723C11.6846 15.8343 11.7251 16.1259 11.7139 16.4014L11.7344 16.8271C11.7846 17.5623 11.9144 18.2895 12.1211 18.9961C13.9338 18.9648 15.666 18.2344 16.9502 16.9502C18.2629 15.6374 19 13.8565 19 12C19 11.7055 18.9788 11.4132 18.9424 11.124C18.8661 11.1186 18.7916 11.1146 18.7197 11.1094C18.3764 11.0846 18.102 11.0664 17.8945 11.0664C17.8401 11.0664 17.799 11.0692 17.7686 11.0723C17.7612 11.0984 17.7505 11.1332 17.7402 11.1787C17.647 11.5902 17.532 12.3807 16.7461 13.1826C15.9087 14.0367 14.6303 14.2457 13.6689 14.0283C13.182 13.9181 12.6741 13.6762 12.3418 13.2393C11.9788 12.7612 11.9065 12.1541 12.1426 11.5439C12.2514 11.2627 12.3165 10.8563 12.3496 10.3418C12.3824 9.83175 12.3813 9.29622 12.3906 8.74902C12.3994 8.23005 12.4177 7.67667 12.5088 7.22852C12.5546 7.00344 12.6282 6.75186 12.7627 6.5293C12.8961 6.30869 13.1088 6.09044 13.4229 5.98438C13.4388 5.95256 13.4669 5.88357 13.4922 5.74805C13.5222 5.58719 13.5371 5.39638 13.5459 5.1748C13.0424 5.06081 12.5244 5 12 5Z" fill="#262626"/>
</svg>
