<svg width="24" height="24" viewBox="0 0 24 24" fill="none" xmlns="http://www.w3.org/2000/svg">
<path d="M17 3.5C17.4162 3.5 17.7605 3.64234 18.0596 3.94141C18.3585 4.24037 18.5004 4.58404 18.5 4.99902V20.2412L12.1973 17.54L12 17.4561L11.8027 17.54L5.5 20.2412V5C5.5 4.58381 5.64261 4.2397 5.94141 3.94141C6.20313 3.68025 6.49936 3.53859 6.84766 3.50684L7.00098 3.5H17ZM6.5 18.709L7.19727 18.4092L12 16.3438L16.8027 18.4092L17.5 18.709V4.5H6.5V18.709Z" stroke="#262626"/>
<path d="M6 19.5V5.616C6 5.15533 6.15433 4.771 6.463 4.463C6.77167 4.155 7.156 4.00067 7.616 4H16.385C16.845 4 17.2293 4.15433 17.538 4.463C17.8467 4.77167 18.0007 5.156 18 5.616V19.5L12 16.923L6 19.5Z" fill="#262626"/>
</svg>
