<svg width="24" height="24" viewBox="0 0 24 24" fill="none" xmlns="http://www.w3.org/2000/svg">
<path d="M12 20C14.1217 20 16.1566 19.1571 17.6569 17.6569C19.1571 16.1566 20 14.1217 20 12C20 9.87827 19.1571 7.84344 17.6569 6.34315C16.1566 4.84285 14.1217 4 12 4C9.87827 4 7.84344 4.84285 6.34315 6.34315C4.84285 7.84344 4 9.87827 4 12C4 14.1217 4.84285 16.1566 6.34315 17.6569C7.84344 19.1571 9.87827 20 12 20Z" stroke="#7B7B7B" stroke-width="2" stroke-linecap="round" stroke-linejoin="round"/>
<path d="M6.41699 6.26521C9.98752 7.10732 8.31173 10.24 8.2612 13.4231C8.2612 16.8757 11.0907 14.7873 10.9644 16.421C10.9966 17.6418 11.2328 18.8487 11.6633 19.9915M14.3075 4.34521C14.3075 5.50732 14.3075 6.50943 13.6844 6.68627C12.7496 6.94732 13.4486 10.2484 12.8423 11.8147C12.2359 13.381 14.9728 13.92 16.2107 12.6568C17.4486 11.3936 16.5391 10.3157 17.8949 10.3157C18.3749 10.3157 19.1075 10.4 19.8486 10.4252" stroke="#7B7B7B" stroke-width="1.5" stroke-linecap="round" stroke-linejoin="round"/>
</svg>
